# xmcd
#
# Track frame offsets:
#	150
#	13896
#	27122
#	38380
#	50234
#	60202
#	73307
#	85289
#	99785
#	112213
#	125027
#	139667
#	153241
#	167129
#	178012
#	188768
#	200851
#	212843
#	226775
#	237933
#
# Disc length: 3360 seconds
#
# Revision: 1
# Processed by: cddbd v1.5.1PL2 Copyright (c) Steve Scherf et al.
# Submitted via: EasyCDDAExtractor 6.5.5.1
#
DISCID=180d1e14
DTITLE=Julio Jaramillo - 20 Exitos Inolvidables Vol. 2
DYEAR=1998
DGENRE=Blues
TTITLE0=Mi Primer Amor
TTITLE1=Obsesion
TTITLE2=Tu Duda Y La Mia
TTITLE3=Mi Pecado
TTITLE4=Alma Mia
TTITLE5=Azabache
TTITLE6=Mire Comadre Mire
TTITLE7=Boda Gris
TTITLE8=Pasional
TTITLE9=Hoja Seca
TTITLE10=Alla En El Cielo
TTITLE11=Dejala Que Se Vaya
TTITLE12=Pañuelo Blanco
TTITLE13=Propieded Privada
TTITLE14=Sigue De Frente
TTITLE15=Mas Solo Que Nunca
TTITLE16=Tus Ojos Me Diran
TTITLE17=10 Años
TTITLE18=Dulce Veneno
TTITLE19=Mi Ultimo Ruego
EXTD=
EXTT0=
EXTT1=
EXTT2=
EXTT3=
EXTT4=
EXTT5=
EXTT6=
EXTT7=
EXTT8=
EXTT9=
EXTT10=
EXTT11=
EXTT12=
EXTT13=
EXTT14=
EXTT15=
EXTT16=
EXTT17=
EXTT18=
EXTT19=
PLAYORDER=
